<svg id="svg" version="1.1" xmlns="http://www.w3.org/2000/svg" xmlns:xlink="http://www.w3.org/1999/xlink" width="400" height="400" viewBox="0, 0, 400,400"><g id="svgg"><path id="path0" d="M126.560 133.493 C 125.675 134.111,125.616 138.649,125.607 207.864 C 125.597 278.988,125.608 279.725,126.638 279.330 C 126.953 279.209,127.458 279.316,127.761 279.568 C 128.162 279.901,134.486 280.011,150.952 279.974 C 175.378 279.918,174.209 280.010,176.000 278.003 C 176.110 277.880,177.005 277.154,177.988 276.390 C 178.972 275.625,180.518 274.280,181.424 273.400 C 182.331 272.520,183.916 271.108,184.947 270.263 C 185.978 269.417,187.188 268.008,187.635 267.132 C 188.160 266.103,188.917 265.343,189.776 264.984 C 191.145 264.412,193.201 262.300,193.198 261.469 C 193.197 261.211,193.242 253.575,193.298 244.500 C 193.358 234.811,193.250 228.000,193.037 228.000 C 192.357 228.000,188.400 231.295,188.400 231.861 C 188.400 232.171,188.085 232.534,187.700 232.667 C 187.315 232.800,184.804 235.089,182.120 237.754 C 179.435 240.419,175.596 244.040,173.587 245.800 C 171.578 247.560,169.773 249.408,169.575 249.907 C 169.376 250.406,168.802 250.971,168.299 251.162 C 167.796 251.354,166.663 252.231,165.783 253.111 C 163.109 255.785,156.585 256.375,154.195 254.160 L 153.200 253.238 153.200 207.519 L 153.200 161.800 154.666 160.630 L 156.133 159.460 183.925 159.562 C 199.211 159.619,212.131 159.822,212.635 160.013 C 213.140 160.205,214.959 160.479,216.677 160.622 C 218.396 160.765,220.453 161.209,221.251 161.609 C 222.049 162.009,223.534 162.461,224.551 162.614 C 225.568 162.766,226.400 163.042,226.400 163.227 C 226.400 163.411,227.225 163.927,228.233 164.373 C 229.241 164.819,230.605 165.638,231.264 166.192 C 231.923 166.747,232.898 167.310,233.431 167.443 C 233.964 167.577,234.400 167.934,234.400 168.237 C 234.400 168.539,235.266 169.225,236.324 169.762 C 237.686 170.452,238.826 171.518,240.224 173.410 C 241.311 174.881,242.500 176.410,242.866 176.808 C 244.036 178.080,246.267 181.784,246.756 183.268 C 247.017 184.057,247.583 185.023,248.015 185.414 C 248.447 185.804,248.800 186.346,248.800 186.618 C 248.800 186.890,249.156 187.897,249.591 188.856 C 250.026 189.815,250.386 191.236,250.391 192.014 C 250.396 192.791,250.755 194.437,251.188 195.670 C 252.213 198.586,252.314 209.956,251.338 212.585 C 251.009 213.473,250.580 214.920,250.385 215.800 C 249.943 217.801,248.479 221.618,247.873 222.351 C 247.622 222.655,246.957 223.915,246.395 225.151 C 244.623 229.052,243.707 230.547,241.929 232.438 C 240.978 233.449,238.940 235.684,237.400 237.404 C 233.985 241.218,229.321 245.886,227.720 247.091 C 226.336 248.132,219.086 255.266,217.534 257.112 C 216.389 258.475,211.778 262.507,209.778 263.895 C 209.106 264.361,208.211 265.386,207.787 266.171 C 207.301 267.074,206.720 267.604,206.209 267.611 C 205.286 267.624,203.745 269.124,202.462 271.260 C 201.909 272.180,200.915 273.034,199.772 273.571 C 198.669 274.090,197.647 274.953,197.161 275.776 C 196.722 276.520,196.101 277.229,195.782 277.352 C 194.825 277.719,195.060 279.479,196.100 279.733 C 197.683 280.119,204.997 280.003,206.423 279.569 C 207.180 279.338,209.073 279.164,210.629 279.182 C 212.375 279.202,214.137 278.958,215.229 278.546 C 216.203 278.178,218.350 277.754,220.000 277.605 C 221.670 277.454,224.153 276.879,225.600 276.308 C 227.030 275.745,228.690 275.173,229.289 275.037 C 229.888 274.901,230.698 274.458,231.089 274.053 C 231.480 273.647,232.357 273.209,233.039 273.080 C 234.224 272.855,235.696 272.055,238.509 270.106 C 239.219 269.615,240.539 268.867,241.442 268.445 C 242.345 268.023,243.195 267.390,243.330 267.039 C 243.465 266.688,243.847 266.400,244.179 266.400 C 245.244 266.400,252.331 260.752,252.979 259.389 C 253.465 258.363,253.776 258.145,254.541 258.291 C 255.304 258.437,255.547 258.267,255.753 257.444 C 255.898 256.867,256.536 256.143,257.206 255.797 C 258.063 255.353,258.400 254.889,258.400 254.147 C 258.400 253.425,258.569 253.179,258.961 253.330 C 259.601 253.575,264.591 247.484,265.647 245.168 C 266.006 244.381,266.772 243.264,267.350 242.687 C 267.927 242.109,268.400 241.461,268.400 241.246 C 268.400 241.032,269.086 239.809,269.925 238.528 C 271.513 236.104,273.200 232.471,273.200 231.475 C 273.200 231.158,273.470 230.674,273.800 230.400 C 274.161 230.101,274.400 229.225,274.400 228.205 C 274.400 227.101,274.686 226.144,275.218 225.468 C 276.166 224.262,277.032 220.560,277.598 215.292 C 277.817 213.253,278.267 210.936,278.598 210.144 C 279.302 208.459,279.436 198.445,278.790 195.800 C 278.576 194.920,278.224 192.446,278.010 190.303 C 277.771 187.922,277.318 185.815,276.843 184.885 C 276.416 184.048,275.942 182.651,275.788 181.781 C 275.635 180.912,275.260 179.801,274.955 179.314 C 274.650 178.827,274.400 178.096,274.400 177.691 C 274.400 177.285,274.136 176.604,273.813 176.176 C 273.490 175.749,273.217 175.040,273.207 174.600 C 273.187 173.749,272.853 173.093,271.100 170.465 C 270.495 169.558,270.000 168.541,270.000 168.204 C 270.000 167.868,269.640 167.284,269.200 166.907 C 268.760 166.530,268.397 165.857,268.394 165.411 C 268.384 164.050,267.764 163.366,267.066 163.945 C 266.361 164.530,265.879 163.980,266.250 163.013 C 266.962 161.159,255.710 149.122,253.911 149.813 C 253.486 149.976,253.242 149.709,253.082 148.908 C 252.817 147.583,247.418 143.304,245.536 142.927 C 244.911 142.802,244.400 142.486,244.400 142.224 C 244.400 141.719,241.954 140.400,241.017 140.400 C 240.711 140.400,239.934 139.956,239.290 139.414 C 238.645 138.872,237.327 138.307,236.359 138.160 C 235.392 138.012,234.362 137.703,234.071 137.472 C 233.313 136.873,229.118 135.204,228.363 135.202 C 228.012 135.201,226.662 134.801,225.363 134.314 L 223.000 133.429 175.000 133.307 C 148.600 133.240,126.802 133.324,126.560 133.493 " stroke="none" fill="#f48423" fill-rule="evenodd"></path><path id="path1" d="M216.200 132.000 L 213.800 132.266 216.000 132.338 C 217.210 132.378,218.608 132.520,219.106 132.654 C 219.827 132.847,219.961 132.764,219.763 132.248 C 219.626 131.892,219.309 131.630,219.057 131.667 C 218.806 131.704,217.520 131.854,216.200 132.000 M125.700 132.412 C 124.899 132.734,124.808 133.028,124.872 135.087 L 124.944 137.400 125.096 135.400 C 125.180 134.300,125.426 133.220,125.644 133.000 C 125.900 132.741,141.205 132.528,169.120 132.396 L 212.200 132.191 169.400 132.121 C 144.630 132.080,126.221 132.203,125.700 132.412 M222.126 132.714 C 221.863 132.881,222.354 133.033,223.226 133.056 C 224.092 133.079,224.800 132.941,224.800 132.749 C 224.800 132.323,222.782 132.296,222.126 132.714 M226.400 134.000 C 227.176 134.501,227.600 134.501,227.600 134.000 C 227.600 133.780,227.195 133.603,226.700 133.606 C 225.972 133.611,225.915 133.686,226.400 134.000 M232.056 135.165 C 231.650 135.416,231.688 135.548,232.224 135.754 C 233.056 136.073,233.255 135.936,232.868 135.310 C 232.701 135.039,232.359 134.978,232.056 135.165 M235.600 137.200 C 236.388 137.709,237.315 137.709,237.000 137.200 C 236.864 136.980,236.358 136.803,235.876 136.806 C 235.164 136.811,235.112 136.885,235.600 137.200 M250.170 145.152 C 250.290 145.345,250.761 145.601,251.217 145.720 C 251.897 145.898,251.961 145.835,251.574 145.369 C 251.068 144.759,249.807 144.564,250.170 145.152 M252.891 146.340 C 252.501 146.584,252.566 146.826,253.167 147.370 C 254.250 148.350,254.922 148.011,254.080 146.910 C 253.650 146.348,253.213 146.138,252.891 146.340 M263.200 157.012 C 263.750 157.665,264.245 158.275,264.300 158.367 C 264.355 158.458,264.511 158.422,264.648 158.286 C 264.904 158.029,264.371 157.422,262.998 156.412 C 262.407 155.977,262.460 156.132,263.200 157.012 M155.800 160.400 C 155.636 160.665,164.751 160.784,182.876 160.753 C 197.904 160.727,209.660 160.568,209.000 160.400 C 207.133 159.925,156.094 159.925,155.800 160.400 M154.193 207.200 C 154.193 232.170,154.241 242.385,154.300 229.900 C 154.359 217.415,154.359 196.985,154.300 184.500 C 154.241 172.015,154.193 182.230,154.193 207.200 M268.809 164.851 C 268.800 165.497,269.869 166.664,270.182 166.351 C 270.272 166.261,270.002 165.741,269.582 165.194 C 269.012 164.453,268.816 164.366,268.809 164.851 M227.200 165.413 C 227.200 166.060,227.825 166.207,228.174 165.642 C 228.296 165.445,228.126 165.181,227.798 165.054 C 227.435 164.915,227.200 165.056,227.200 165.413 M270.885 168.300 C 271.446 169.622,272.268 170.595,271.813 169.400 C 271.646 168.960,271.419 168.285,271.308 167.900 C 271.197 167.515,270.952 167.200,270.762 167.200 C 270.572 167.200,270.627 167.695,270.885 168.300 M241.410 177.183 C 241.267 177.416,241.476 177.722,241.875 177.865 C 242.274 178.007,243.020 178.591,243.533 179.162 L 244.466 180.200 243.652 178.964 C 242.546 177.287,241.741 176.648,241.410 177.183 M275.275 178.025 C 275.371 178.314,275.686 178.629,275.975 178.725 C 276.275 178.825,276.425 178.675,276.325 178.375 C 276.229 178.086,275.914 177.771,275.625 177.675 C 275.325 177.575,275.175 177.725,275.275 178.025 M276.458 181.500 C 276.848 183.588,278.000 185.253,278.000 183.729 C 278.000 183.265,277.730 182.782,277.400 182.655 C 277.053 182.522,276.800 181.924,276.800 181.236 C 276.800 180.582,276.644 179.951,276.453 179.833 C 276.259 179.713,276.261 180.446,276.458 181.500 M244.400 181.598 C 244.400 181.804,244.756 182.162,245.191 182.395 C 245.826 182.735,245.938 182.704,245.760 182.240 C 245.502 181.567,244.400 181.047,244.400 181.598 M278.400 189.567 C 278.400 191.057,278.782 192.058,279.242 191.774 C 279.884 191.377,279.670 188.400,279.000 188.400 C 278.604 188.400,278.400 188.796,278.400 189.567 M278.683 212.800 C 278.163 214.713,278.339 216.798,279.000 216.545 C 279.634 216.301,279.743 214.587,279.238 212.800 L 278.955 211.800 278.683 212.800 M277.254 222.090 C 276.613 223.299,276.761 224.123,277.532 223.644 C 277.832 223.458,278.006 222.821,277.932 222.186 L 277.800 221.059 277.254 222.090 M246.461 222.354 C 246.164 222.542,245.984 222.987,246.061 223.343 C 246.166 223.831,246.313 223.746,246.662 222.995 C 246.917 222.448,247.097 222.003,247.062 222.006 C 247.028 222.009,246.757 222.166,246.461 222.354 M192.767 226.177 C 192.235 226.802,191.350 227.770,190.800 228.328 C 190.159 228.978,190.087 229.141,190.600 228.783 C 191.040 228.476,191.729 227.896,192.131 227.495 C 192.583 227.045,193.157 226.860,193.631 227.010 C 194.451 227.270,194.523 227.059,194.039 225.820 C 193.752 225.088,193.674 225.110,192.767 226.177 M275.500 226.631 C 275.335 226.797,275.200 227.299,275.200 227.747 C 275.200 228.335,275.321 228.439,275.638 228.122 C 275.878 227.882,276.013 227.380,275.938 227.007 C 275.862 226.633,275.665 226.464,275.500 226.631 M244.074 227.874 C 243.785 227.989,243.383 228.520,243.180 229.053 C 242.977 229.586,242.418 230.167,241.937 230.345 C 241.334 230.568,241.214 230.761,241.549 230.969 C 242.165 231.349,242.939 230.708,243.966 228.968 C 244.410 228.216,244.734 227.614,244.687 227.632 C 244.639 227.649,244.363 227.758,244.074 227.874 M185.800 232.400 C 183.245 234.994,183.783 234.997,186.505 232.404 C 187.657 231.306,188.413 230.406,188.185 230.404 C 187.957 230.402,186.883 231.300,185.800 232.400 M273.892 231.442 C 273.731 231.602,273.600 232.009,273.600 232.347 C 273.600 232.797,273.718 232.842,274.045 232.515 C 274.290 232.270,274.421 231.863,274.337 231.610 C 274.252 231.357,274.052 231.281,273.892 231.442 M236.981 236.100 L 235.400 237.800 237.100 236.219 C 238.035 235.349,238.800 234.584,238.800 234.519 C 238.800 234.216,238.452 234.519,236.981 236.100 M181.970 236.163 C 181.183 236.909,180.099 238.042,179.561 238.682 C 179.023 239.321,178.272 239.964,177.891 240.110 C 177.511 240.256,177.200 240.679,177.200 241.051 C 177.200 241.515,177.734 241.173,178.900 239.961 C 179.835 238.990,181.394 237.431,182.364 236.498 C 183.334 235.564,183.964 234.802,183.764 234.803 C 183.564 234.805,182.756 235.417,181.970 236.163 M233.500 239.757 C 233.115 240.049,232.800 240.487,232.800 240.730 C 232.800 240.973,232.425 241.373,231.966 241.618 C 231.507 241.864,231.233 242.166,231.356 242.289 C 231.653 242.587,232.646 241.740,233.646 240.336 C 234.546 239.072,234.523 238.981,233.500 239.757 M266.873 244.600 C 266.491 245.438,266.520 245.600,267.051 245.600 C 267.426 245.600,267.599 245.374,267.474 245.049 C 267.358 244.746,267.464 244.296,267.711 244.049 C 268.001 243.759,268.012 243.600,267.744 243.600 C 267.516 243.600,267.123 244.050,266.873 244.600 M222.585 250.500 L 220.600 252.600 222.700 250.615 C 224.651 248.771,224.983 248.400,224.685 248.400 C 224.622 248.400,223.677 249.345,222.585 250.500 M262.283 251.212 C 261.911 251.645,261.764 252.000,261.955 252.000 C 262.395 252.000,263.374 250.841,263.136 250.602 C 263.038 250.504,262.654 250.779,262.283 251.212 M164.375 252.513 C 164.032 252.781,163.627 253.328,163.477 253.729 C 163.245 254.347,163.384 254.316,164.379 253.529 C 165.522 252.626,165.911 251.987,165.300 252.013 C 165.135 252.020,164.719 252.245,164.375 252.513 M260.288 253.679 C 259.013 255.110,259.010 256.200,260.285 254.831 C 260.933 254.136,261.814 252.328,261.463 252.416 C 261.428 252.424,260.900 252.993,260.288 253.679 M256.870 256.926 C 256.391 257.435,256.006 258.110,256.013 258.426 C 256.023 258.834,256.225 258.763,256.713 258.181 C 257.091 257.730,257.715 257.240,258.100 257.093 C 258.485 256.946,258.800 256.639,258.800 256.413 C 258.800 255.693,257.771 255.966,256.870 256.926 M194.109 258.400 C 194.109 259.390,194.187 259.795,194.282 259.300 C 194.378 258.805,194.378 257.995,194.282 257.500 C 194.187 257.005,194.109 257.410,194.109 258.400 M214.300 258.276 C 213.915 258.376,213.600 258.743,213.600 259.091 C 213.600 259.638,213.709 259.625,214.400 259.000 C 215.080 258.384,215.446 257.886,215.100 258.046 C 215.045 258.072,214.685 258.175,214.300 258.276 M253.400 260.400 C 252.768 261.060,252.381 261.600,252.541 261.600 C 253.002 261.600,255.200 259.884,255.200 259.525 C 255.200 258.892,254.535 259.215,253.400 260.400 M210.505 261.824 C 208.320 264.113,208.834 264.089,211.339 261.784 C 212.405 260.803,213.035 260.011,212.739 260.024 C 212.442 260.037,211.437 260.847,210.505 261.824 M193.322 262.318 L 192.443 264.200 193.420 263.000 C 193.957 262.340,194.397 261.485,194.398 261.100 C 194.401 260.103,194.305 260.212,193.322 262.318 M206.575 266.100 L 205.400 267.400 206.700 266.225 C 207.415 265.579,208.000 264.994,208.000 264.925 C 208.000 264.616,207.670 264.888,206.575 266.100 M246.557 266.136 C 245.958 266.651,245.633 267.167,245.834 267.284 C 246.035 267.401,246.619 266.979,247.130 266.348 C 248.258 264.957,248.026 264.872,246.557 266.136 M188.675 267.275 C 187.893 268.216,187.331 269.065,187.427 269.160 C 187.522 269.255,187.645 269.256,187.700 269.162 C 187.755 269.068,188.418 268.321,189.173 267.502 C 189.928 266.682,190.444 265.911,190.321 265.788 C 190.198 265.664,189.457 266.334,188.675 267.275 M240.436 269.894 C 239.374 270.534,238.888 271.029,239.216 271.139 C 239.515 271.238,239.829 271.113,239.913 270.860 C 239.998 270.607,240.239 270.400,240.450 270.400 C 240.661 270.400,241.220 270.040,241.692 269.600 C 242.818 268.551,242.568 268.609,240.436 269.894 M201.246 270.824 C 200.748 271.497,199.769 272.396,199.070 272.822 C 198.372 273.248,198.038 273.598,198.330 273.599 C 198.959 273.600,203.193 269.621,202.575 269.609 C 202.342 269.604,201.743 270.151,201.246 270.824 M182.600 273.023 C 181.854 273.656,181.715 273.891,182.233 273.643 C 182.976 273.287,184.325 271.997,183.949 272.002 C 183.867 272.003,183.260 272.463,182.600 273.023 M179.400 276.263 C 178.520 277.254,176.945 278.621,175.900 279.300 C 173.700 280.730,173.601 280.862,175.100 280.369 C 177.341 279.632,177.600 279.497,177.600 279.066 C 177.600 278.824,178.539 277.674,179.686 276.513 C 180.834 275.351,181.599 274.413,181.386 274.430 C 181.174 274.446,180.280 275.271,179.400 276.263 M195.100 276.347 C 193.499 277.997,192.989 278.960,194.500 277.480 C 195.682 276.322,196.967 274.800,196.762 274.800 C 196.673 274.801,195.925 275.497,195.100 276.347 M225.067 277.067 C 224.684 277.449,224.738 278.000,225.157 278.000 C 225.354 278.000,225.618 277.730,225.745 277.400 C 225.979 276.790,225.553 276.581,225.067 277.067 M217.666 278.751 C 217.267 279.003,217.369 279.152,218.066 279.339 C 219.568 279.741,220.299 279.641,220.545 279.000 C 220.804 278.324,218.635 278.136,217.666 278.751 M124.800 279.800 C 124.800 280.350,124.955 280.800,125.145 280.800 C 125.334 280.800,125.403 280.350,125.298 279.800 C 125.193 279.250,125.038 278.800,124.953 278.800 C 124.869 278.800,124.800 279.250,124.800 279.800 M191.053 279.080 C 190.746 279.388,191.535 280.800,192.014 280.800 C 192.617 280.800,192.467 279.311,191.839 279.070 C 191.531 278.952,191.177 278.956,191.053 279.080 M206.400 280.486 C 205.490 280.883,205.470 280.938,206.185 281.107 C 206.616 281.208,207.036 281.091,207.118 280.846 C 207.315 280.255,211.885 280.254,212.081 280.844 C 212.174 281.122,212.429 281.047,212.764 280.644 C 213.415 279.859,208.140 279.728,206.400 280.486 M194.500 280.676 C 194.885 280.776,195.515 280.776,195.900 280.676 C 196.285 280.575,195.970 280.493,195.200 280.493 C 194.430 280.493,194.115 280.575,194.500 280.676 " stroke="none" fill="#de9759" fill-rule="evenodd"></path><path id="path2" d="M126.334 132.669 C 125.968 132.766,125.518 133.150,125.334 133.523 C 124.896 134.410,124.684 277.640,125.118 279.315 L 125.451 280.600 149.528 280.703 L 173.606 280.806 175.303 279.744 C 176.236 279.160,178.469 277.196,180.264 275.379 C 182.059 273.563,183.861 271.971,184.268 271.842 C 184.674 271.713,185.192 271.201,185.418 270.704 C 185.644 270.207,186.036 269.841,186.289 269.891 C 186.542 269.942,187.255 269.194,187.874 268.229 C 188.493 267.264,189.540 266.152,190.200 265.757 C 191.739 264.835,192.669 263.769,193.551 261.916 C 194.607 259.698,194.835 227.453,193.798 227.055 C 192.926 226.720,193.056 226.675,191.913 227.700 C 191.361 228.195,190.194 229.178,189.320 229.883 C 188.445 230.589,185.302 233.559,182.334 236.483 C 179.366 239.408,175.455 243.150,173.644 244.800 C 171.833 246.450,170.137 248.046,169.876 248.346 C 169.614 248.647,168.888 249.367,168.262 249.946 C 164.461 253.467,163.346 254.392,162.900 254.396 C 162.625 254.398,162.400 254.580,162.400 254.800 C 162.400 255.703,164.749 254.451,166.127 252.814 C 166.689 252.146,167.613 251.423,168.181 251.207 C 168.750 250.991,169.376 250.406,169.575 249.907 C 169.773 249.408,171.578 247.560,173.587 245.800 C 175.596 244.040,179.435 240.419,182.120 237.754 C 184.804 235.089,187.315 232.800,187.700 232.667 C 188.085 232.534,188.400 232.171,188.400 231.861 C 188.400 231.295,192.357 228.000,193.037 228.000 C 193.250 228.000,193.358 234.811,193.298 244.500 C 193.242 253.575,193.197 261.211,193.198 261.469 C 193.201 262.300,191.145 264.412,189.776 264.984 C 188.917 265.343,188.160 266.103,187.635 267.132 C 187.188 268.008,185.978 269.417,184.947 270.263 C 183.916 271.108,182.331 272.520,181.424 273.400 C 180.518 274.280,178.972 275.625,177.988 276.390 C 177.005 277.154,176.110 277.880,176.000 278.003 C 174.209 280.010,175.378 279.918,150.952 279.974 C 134.486 280.011,128.162 279.901,127.761 279.568 C 127.458 279.316,126.953 279.209,126.638 279.330 C 126.324 279.451,125.961 279.275,125.832 278.939 C 125.524 278.136,125.559 137.970,125.868 135.494 C 126.186 132.938,121.759 133.135,175.422 133.291 L 223.000 133.429 225.363 134.315 C 226.662 134.802,228.012 135.201,228.363 135.202 C 229.118 135.204,233.313 136.873,234.071 137.472 C 234.362 137.703,235.392 138.012,236.359 138.160 C 237.327 138.307,238.645 138.872,239.290 139.414 C 239.934 139.956,240.711 140.400,241.017 140.400 C 241.954 140.400,244.400 141.719,244.400 142.224 C 244.400 142.486,244.911 142.802,245.536 142.927 C 247.418 143.304,252.817 147.583,253.082 148.908 C 253.242 149.709,253.486 149.976,253.911 149.813 C 255.710 149.122,266.962 161.159,266.250 163.013 C 265.879 163.980,266.361 164.530,267.066 163.945 C 267.764 163.366,268.384 164.050,268.394 165.411 C 268.397 165.857,268.760 166.530,269.200 166.907 C 269.640 167.284,270.000 167.868,270.000 168.204 C 270.000 168.541,270.495 169.558,271.100 170.465 C 272.853 173.093,273.187 173.749,273.207 174.600 C 273.217 175.040,273.490 175.749,273.813 176.176 C 274.136 176.604,274.400 177.285,274.400 177.691 C 274.400 178.096,274.650 178.827,274.955 179.314 C 275.260 179.801,275.635 180.912,275.788 181.781 C 275.942 182.651,276.438 184.091,276.893 184.981 C 277.347 185.872,277.784 187.590,277.863 188.800 C 278.052 191.682,278.867 196.867,279.095 196.638 C 279.390 196.343,279.448 191.647,279.155 191.828 C 278.709 192.103,278.400 190.857,278.400 188.786 C 278.400 186.869,278.248 186.334,276.719 182.852 C 276.297 181.891,276.038 180.878,276.144 180.602 C 276.250 180.326,276.081 179.607,275.768 179.004 C 275.456 178.402,275.200 177.659,275.200 177.354 C 275.200 177.049,275.001 176.800,274.757 176.800 C 274.514 176.800,274.411 176.547,274.530 176.239 C 274.648 175.930,274.493 175.345,274.185 174.939 C 273.877 174.532,273.620 173.830,273.613 173.378 C 273.606 172.925,273.137 171.935,272.572 171.178 C 272.007 170.420,271.298 169.219,270.997 168.509 C 270.695 167.800,270.096 166.840,269.665 166.377 C 268.737 165.381,268.333 163.704,268.958 163.446 C 269.201 163.345,269.125 163.249,268.788 163.232 C 268.452 163.214,267.912 162.812,267.588 162.337 C 267.047 161.543,264.877 158.868,264.395 158.400 C 264.282 158.290,263.387 157.210,262.408 156.000 C 259.803 152.783,255.548 148.845,254.932 149.081 C 254.640 149.194,254.392 149.041,254.381 148.743 C 254.371 148.444,253.645 147.660,252.768 147.000 C 251.891 146.340,250.659 145.395,250.029 144.900 C 249.400 144.405,248.685 144.000,248.442 144.000 C 248.199 144.000,248.000 143.811,248.000 143.580 C 248.000 143.348,247.382 142.901,246.627 142.586 C 245.872 142.270,245.145 141.834,245.010 141.617 C 244.747 141.191,242.580 140.112,241.600 139.918 C 241.270 139.853,240.910 139.686,240.800 139.546 C 240.408 139.050,237.566 137.600,236.983 137.600 C 236.658 137.600,235.538 137.220,234.496 136.755 C 233.453 136.290,232.067 135.673,231.416 135.383 C 230.765 135.093,230.090 134.944,229.916 135.052 C 229.742 135.159,229.600 135.057,229.600 134.824 C 229.600 134.591,229.048 134.400,228.374 134.400 C 227.699 134.400,226.772 134.199,226.313 133.953 C 223.744 132.579,218.170 132.425,172.200 132.459 C 147.340 132.478,126.700 132.572,126.334 132.669 M154.637 160.642 L 153.200 161.885 153.200 207.369 C 153.200 253.018,153.241 254.400,154.581 254.400 C 154.885 254.400,155.214 254.625,155.312 254.900 C 155.410 255.175,155.631 255.270,155.802 255.110 C 155.973 254.951,155.683 254.471,155.157 254.045 L 154.200 253.271 154.095 207.656 L 153.990 162.042 155.095 161.011 L 156.200 159.981 183.000 160.142 C 212.266 160.318,211.085 160.290,211.416 160.825 C 211.543 161.031,212.457 161.200,213.447 161.200 C 214.661 161.200,215.158 161.344,214.974 161.643 C 214.783 161.952,215.089 162.000,215.987 161.803 C 218.194 161.318,219.797 161.488,221.225 162.359 C 221.981 162.820,223.050 163.202,223.600 163.207 C 224.150 163.213,225.050 163.570,225.600 164.000 C 226.150 164.430,226.820 164.786,227.088 164.791 C 227.751 164.803,230.412 166.304,231.426 167.239 C 231.880 167.658,232.434 168.000,232.656 168.000 C 232.879 168.000,233.483 168.450,234.000 169.000 C 234.517 169.550,235.183 170.000,235.482 170.000 C 236.614 170.000,244.800 179.581,244.800 180.906 C 244.800 181.241,245.045 181.608,245.344 181.723 C 245.643 181.838,246.098 182.765,246.354 183.782 C 246.610 184.800,247.085 185.735,247.410 185.859 C 247.734 185.984,248.000 186.426,248.000 186.843 C 248.000 187.259,248.136 187.600,248.303 187.600 C 248.756 187.600,249.600 190.589,249.600 192.194 C 249.600 192.967,249.780 193.600,250.000 193.600 C 250.676 193.600,250.426 190.697,249.591 188.856 C 249.156 187.897,248.800 186.890,248.800 186.618 C 248.800 186.346,248.447 185.804,248.015 185.414 C 247.583 185.023,247.017 184.057,246.756 183.268 C 246.267 181.784,244.036 178.080,242.866 176.808 C 242.500 176.410,241.311 174.881,240.224 173.410 C 238.826 171.518,237.686 170.452,236.324 169.762 C 235.266 169.225,234.400 168.539,234.400 168.237 C 234.400 167.934,233.964 167.577,233.431 167.443 C 232.898 167.310,231.923 166.747,231.264 166.192 C 230.605 165.638,229.241 164.819,228.233 164.373 C 227.225 163.927,226.400 163.411,226.400 163.227 C 226.400 163.042,225.545 162.766,224.500 162.614 C 223.455 162.462,222.166 162.058,221.635 161.717 C 221.105 161.376,219.215 160.942,217.435 160.753 C 215.656 160.564,213.480 160.230,212.600 160.011 C 211.637 159.771,200.063 159.570,183.537 159.506 L 156.074 159.400 154.637 160.642 M250.302 194.477 C 250.184 194.786,250.335 195.749,250.638 196.619 C 251.419 198.865,251.412 210.195,250.628 212.072 C 250.313 212.826,250.196 213.670,250.368 213.948 C 251.781 216.235,252.535 198.203,251.149 195.259 C 250.734 194.376,250.444 194.109,250.302 194.477 M279.240 202.700 C 279.301 208.649,279.913 209.499,279.960 203.700 C 279.985 200.673,279.847 198.800,279.600 198.800 C 279.358 198.800,279.216 200.340,279.240 202.700 M278.440 210.459 C 278.183 211.193,277.800 213.416,277.587 215.397 C 277.031 220.566,276.160 224.270,275.218 225.468 C 274.686 226.144,274.400 227.101,274.400 228.205 C 274.400 229.225,274.161 230.101,273.800 230.400 C 273.470 230.674,273.200 231.158,273.200 231.475 C 273.200 232.471,271.513 236.104,269.925 238.528 C 269.086 239.809,268.400 241.032,268.400 241.246 C 268.400 241.461,267.927 242.109,267.350 242.687 C 266.772 243.264,266.006 244.381,265.647 245.168 C 264.591 247.484,259.601 253.575,258.961 253.330 C 258.569 253.179,258.400 253.425,258.400 254.147 C 258.400 254.889,258.063 255.353,257.206 255.797 C 256.536 256.143,255.898 256.867,255.753 257.444 C 255.547 258.267,255.304 258.437,254.541 258.291 C 253.776 258.145,253.465 258.363,252.979 259.389 C 252.331 260.752,245.244 266.400,244.179 266.400 C 243.847 266.400,243.465 266.688,243.330 267.039 C 243.195 267.390,242.345 268.023,241.442 268.445 C 240.539 268.867,239.235 269.615,238.544 270.106 C 237.853 270.598,236.683 271.339,235.944 271.754 C 235.205 272.169,234.804 272.582,235.053 272.672 C 235.460 272.819,239.511 270.676,240.000 270.054 C 240.110 269.914,240.830 269.486,241.600 269.102 C 244.118 267.847,245.555 266.933,247.493 265.355 C 248.542 264.500,249.747 263.531,250.171 263.201 C 250.595 262.870,251.784 261.835,252.813 260.900 C 253.841 259.965,254.895 259.200,255.154 259.200 C 255.413 259.200,255.736 258.885,255.872 258.500 C 256.234 257.474,257.655 256.000,258.282 256.000 C 258.581 256.000,258.935 255.713,259.070 255.362 C 259.205 255.011,259.829 254.161,260.457 253.473 C 261.086 252.785,261.600 252.090,261.600 251.929 C 261.600 251.768,262.037 251.165,262.571 250.589 C 264.909 248.069,265.498 247.291,266.420 245.500 C 266.958 244.455,267.543 243.600,267.720 243.600 C 267.896 243.600,268.302 243.015,268.620 242.300 C 268.939 241.585,269.641 240.280,270.181 239.400 C 271.861 236.662,273.600 233.202,273.600 232.598 C 273.600 232.280,273.959 231.430,274.399 230.710 C 274.838 229.989,275.203 228.860,275.211 228.200 C 275.219 227.540,275.484 226.658,275.800 226.241 C 276.116 225.824,276.280 225.329,276.164 225.141 C 276.048 224.953,276.143 224.800,276.376 224.800 C 276.609 224.800,276.803 224.395,276.806 223.900 C 276.809 223.405,277.067 222.280,277.379 221.400 C 277.691 220.520,277.849 219.395,277.730 218.900 C 277.604 218.378,277.699 218.000,277.957 218.000 C 278.224 218.000,278.402 217.168,278.404 215.900 C 278.407 214.745,278.660 212.973,278.966 211.962 C 279.630 209.775,279.153 208.412,278.440 210.459 M249.900 215.031 C 249.735 215.197,249.600 215.833,249.600 216.443 C 249.600 217.053,249.420 217.664,249.200 217.800 C 248.980 217.936,248.800 218.487,248.800 219.024 C 248.800 219.561,248.665 220.001,248.500 220.003 C 248.180 220.006,247.200 221.911,247.200 222.529 C 247.200 223.602,248.433 221.615,249.382 219.014 C 250.375 216.291,250.635 214.289,249.900 215.031 M245.220 226.510 C 244.417 228.190,243.036 230.209,241.920 231.333 C 240.864 232.396,240.000 233.307,240.000 233.358 C 240.000 233.874,228.020 246.000,227.511 246.000 C 227.340 246.000,227.200 246.249,227.200 246.553 C 227.200 246.858,226.840 247.201,226.400 247.316 C 225.960 247.431,225.600 247.843,225.600 248.232 C 225.600 248.880,225.675 248.872,226.500 248.137 C 226.995 247.695,227.728 247.079,228.130 246.767 C 229.442 245.747,234.541 240.598,237.400 237.404 C 238.940 235.684,240.978 233.449,241.929 232.438 C 242.879 231.427,244.041 229.880,244.509 229.000 C 246.109 225.996,247.164 223.600,246.882 223.610 C 246.727 223.616,245.979 224.921,245.220 226.510 M223.771 249.707 C 223.315 250.198,220.435 253.010,217.371 255.957 C 214.307 258.903,210.428 262.638,208.750 264.257 C 207.073 265.875,205.595 267.200,205.467 267.200 C 205.338 267.200,203.615 268.823,201.637 270.807 C 199.658 272.790,197.864 274.365,197.648 274.307 C 197.432 274.248,196.835 274.763,196.320 275.452 C 195.806 276.141,194.714 277.299,193.893 278.026 C 191.131 280.470,191.508 280.655,199.100 280.571 C 207.208 280.481,214.400 280.023,214.400 279.597 C 214.400 279.276,216.206 278.930,219.901 278.545 C 221.056 278.424,221.900 278.163,221.777 277.963 C 221.380 277.320,217.862 277.577,215.675 278.408 C 214.209 278.965,212.657 279.206,210.675 279.183 C 209.094 279.165,207.180 279.338,206.423 279.569 C 204.997 280.003,197.683 280.119,196.100 279.733 C 195.060 279.479,194.825 277.719,195.782 277.352 C 196.101 277.229,196.722 276.520,197.161 275.776 C 197.647 274.953,198.669 274.090,199.772 273.571 C 200.915 273.034,201.909 272.180,202.462 271.260 C 203.745 269.124,205.286 267.624,206.209 267.611 C 206.720 267.604,207.301 267.074,207.787 266.171 C 208.211 265.386,209.106 264.361,209.778 263.895 C 211.818 262.480,216.401 258.461,217.534 257.095 C 218.120 256.388,219.918 254.547,221.528 253.005 C 224.355 250.297,225.569 248.792,224.914 248.807 C 224.741 248.811,224.227 249.216,223.771 249.707 M159.700 255.476 C 160.085 255.576,160.715 255.576,161.100 255.476 C 161.485 255.375,161.170 255.293,160.400 255.293 C 159.630 255.293,159.315 255.375,159.700 255.476 M232.800 273.093 C 232.250 273.193,231.480 273.617,231.089 274.033 C 230.698 274.450,229.888 274.901,229.289 275.037 C 228.690 275.173,227.089 275.715,225.732 276.242 C 224.374 276.769,223.069 277.200,222.832 277.200 C 222.594 277.200,222.400 277.350,222.400 277.533 C 222.400 277.717,222.932 277.867,223.582 277.867 C 224.233 277.867,224.671 277.715,224.556 277.529 C 224.441 277.343,224.903 277.079,225.582 276.944 C 226.261 276.808,226.914 276.540,227.032 276.348 C 227.150 276.157,227.608 276.000,228.048 276.000 C 228.992 276.000,234.381 273.537,234.392 273.100 C 234.396 272.935,234.265 272.825,234.100 272.854 C 233.935 272.884,233.350 272.992,232.800 273.093 " stroke="none" fill="#e68f41" fill-rule="evenodd"></path><path id="path3" d="M123.600 206.400 L 123.600 282.000 149.600 282.000 C 166.667 282.000,175.600 281.863,175.600 281.600 C 175.600 281.380,175.843 281.200,176.140 281.200 C 176.436 281.200,178.579 279.355,180.901 277.100 C 183.224 274.845,186.221 271.980,187.562 270.734 C 188.903 269.488,190.000 268.273,190.000 268.034 C 190.000 267.795,190.185 267.600,190.411 267.600 C 190.636 267.600,191.896 266.576,193.211 265.325 L 195.600 263.050 195.600 243.325 L 195.600 223.600 194.538 223.600 C 193.737 223.600,192.707 224.388,190.352 226.800 C 188.634 228.560,187.059 230.000,186.852 230.000 C 186.645 230.000,182.323 234.119,177.247 239.154 C 172.171 244.188,167.744 248.413,167.409 248.541 C 167.074 248.670,166.800 249.051,166.800 249.387 C 166.800 249.733,166.452 250.000,166.000 250.000 C 165.467 250.000,165.200 250.267,165.200 250.800 C 165.200 251.300,164.933 251.600,164.488 251.600 C 164.097 251.600,163.517 251.960,163.200 252.400 C 162.699 253.095,162.165 253.200,159.112 253.200 L 155.600 253.200 155.600 207.600 L 155.600 162.000 185.080 162.000 C 208.664 162.000,214.460 161.900,214.060 161.500 C 213.539 160.978,157.307 160.486,155.315 160.985 L 154.400 161.215 154.400 207.328 C 154.400 242.659,154.512 253.552,154.880 253.920 C 155.715 254.755,163.163 254.565,163.488 253.700 C 163.816 252.826,164.810 252.030,165.600 252.010 C 165.930 252.002,167.280 250.805,168.600 249.351 C 169.920 247.898,171.405 246.553,171.900 246.364 C 172.395 246.175,172.800 245.745,172.800 245.410 C 172.800 245.074,173.076 244.800,173.413 244.800 C 173.749 244.800,174.136 244.512,174.271 244.160 C 174.585 243.342,176.318 241.600,176.818 241.600 C 177.028 241.600,177.200 241.324,177.200 240.987 C 177.200 240.651,177.511 240.256,177.891 240.110 C 178.272 239.964,179.037 239.304,179.591 238.643 C 180.146 237.982,181.208 236.892,181.950 236.221 C 182.693 235.549,184.299 233.965,185.519 232.700 C 186.740 231.435,187.888 230.400,188.072 230.400 C 188.471 230.400,190.597 228.585,191.767 227.247 C 194.443 224.184,194.339 223.501,194.372 244.282 L 194.400 261.964 192.170 264.282 C 190.943 265.557,189.116 267.493,188.110 268.584 C 187.103 269.675,185.360 271.295,184.236 272.184 C 181.943 273.998,177.602 278.478,177.597 279.036 C 177.584 280.506,176.093 280.597,150.100 280.711 L 124.800 280.823 124.800 206.802 L 124.800 132.780 125.848 132.382 C 126.523 132.125,143.024 131.993,172.206 132.010 C 197.126 132.025,217.960 131.925,218.504 131.788 C 219.198 131.614,219.563 131.727,219.733 132.170 C 219.983 132.821,221.134 132.968,222.700 132.548 C 224.208 132.144,223.706 131.600,221.824 131.600 C 220.847 131.600,219.936 131.420,219.800 131.200 C 219.637 130.937,203.129 130.800,171.576 130.800 L 123.600 130.800 123.600 206.400 M224.800 133.000 C 224.800 133.419,225.222 133.600,226.200 133.600 C 226.975 133.600,227.600 133.802,227.600 134.052 C 227.600 134.346,228.091 134.425,229.000 134.277 C 230.096 134.100,230.400 134.185,230.400 134.671 C 230.400 135.132,230.707 135.246,231.600 135.115 C 232.260 135.018,232.800 135.074,232.800 135.240 C 232.800 135.592,235.109 136.800,235.782 136.800 C 236.469 136.800,238.393 137.756,238.397 138.100 C 238.399 138.265,238.816 138.400,239.325 138.400 C 239.833 138.400,240.636 138.760,241.108 139.200 C 241.580 139.640,242.300 140.000,242.708 140.000 C 243.116 140.000,243.836 140.360,244.308 140.800 C 244.780 141.240,245.309 141.604,245.483 141.609 C 245.657 141.614,246.239 141.955,246.775 142.367 C 247.312 142.780,247.987 143.026,248.275 142.916 C 248.564 142.805,248.800 142.927,248.800 143.186 C 248.800 143.851,249.828 144.800,250.549 144.800 C 250.882 144.800,251.423 145.184,251.752 145.653 C 252.099 146.148,252.598 146.409,252.944 146.277 C 253.295 146.142,253.779 146.408,254.123 146.924 C 254.920 148.119,257.464 150.677,259.727 152.556 C 260.757 153.412,261.600 154.336,261.600 154.608 C 261.600 154.881,262.320 155.735,263.200 156.506 C 264.080 157.278,264.800 158.066,264.800 158.259 C 264.800 158.451,265.428 159.327,266.195 160.204 C 266.962 161.082,267.694 162.115,267.822 162.500 C 267.949 162.885,268.331 163.200,268.670 163.200 C 269.014 163.200,269.197 163.432,269.084 163.725 C 268.974 164.013,269.220 164.688,269.633 165.225 C 270.045 165.761,270.386 166.425,270.391 166.700 C 270.396 166.975,270.551 167.200,270.736 167.200 C 270.921 167.200,271.310 167.920,271.600 168.800 C 271.890 169.680,272.235 170.400,272.366 170.400 C 272.497 170.400,272.844 170.985,273.136 171.700 C 274.259 174.450,274.504 175.022,274.847 175.695 C 275.041 176.077,275.200 176.642,275.200 176.952 C 275.200 177.261,275.489 177.625,275.842 177.761 C 276.235 177.912,276.387 178.257,276.235 178.654 C 276.098 179.010,276.153 179.504,276.358 179.751 C 276.562 179.998,276.790 180.726,276.865 181.369 C 277.083 183.255,278.000 183.146,278.000 181.233 C 278.000 180.335,277.820 179.600,277.600 179.600 C 277.380 179.600,277.200 179.161,277.200 178.624 C 277.200 178.087,277.020 177.536,276.800 177.400 C 276.580 177.264,276.400 176.803,276.400 176.376 C 276.400 175.949,276.220 175.600,276.000 175.600 C 275.780 175.600,275.600 175.161,275.600 174.624 C 275.600 174.087,275.420 173.536,275.200 173.400 C 274.980 173.264,274.800 172.803,274.800 172.376 C 274.800 171.949,274.620 171.600,274.400 171.600 C 274.180 171.600,274.000 171.366,274.000 171.080 C 274.000 170.344,273.059 168.407,272.700 168.403 C 272.535 168.401,272.400 168.080,272.400 167.688 C 272.400 167.297,272.040 166.717,271.600 166.400 C 271.160 166.083,270.800 165.407,270.800 164.899 C 270.800 164.391,270.529 163.871,270.198 163.744 C 269.867 163.617,269.291 162.858,268.919 162.056 C 268.546 161.255,268.134 160.510,268.002 160.400 C 267.870 160.290,267.326 159.570,266.794 158.800 C 266.261 158.030,265.180 156.770,264.391 156.000 C 263.601 155.230,262.836 154.285,262.690 153.900 C 262.544 153.515,262.149 153.200,261.813 153.200 C 261.467 153.200,261.200 152.852,261.200 152.400 C 261.200 151.867,260.933 151.600,260.400 151.600 C 259.948 151.600,259.600 151.333,259.600 150.987 C 259.600 150.651,259.324 150.269,258.986 150.139 C 258.649 150.010,257.395 148.949,256.200 147.782 C 255.005 146.616,253.481 145.338,252.813 144.944 C 252.146 144.550,251.600 144.086,251.600 143.914 C 251.600 143.741,251.255 143.600,250.833 143.600 C 250.412 143.600,250.007 143.455,249.933 143.277 C 249.741 142.809,246.135 140.400,245.628 140.400 C 245.393 140.400,245.200 140.220,245.200 140.000 C 245.200 139.780,244.855 139.600,244.433 139.600 C 244.012 139.600,243.607 139.465,243.533 139.300 C 243.345 138.876,238.401 136.400,237.744 136.400 C 237.445 136.400,237.200 136.220,237.200 136.000 C 237.200 135.780,236.851 135.600,236.424 135.600 C 235.997 135.600,235.536 135.420,235.400 135.200 C 235.264 134.980,234.713 134.800,234.176 134.800 C 233.639 134.800,233.200 134.620,233.200 134.400 C 233.200 134.180,232.671 134.000,232.024 134.000 C 231.377 134.000,230.736 133.820,230.600 133.600 C 230.464 133.380,229.924 133.200,229.400 133.200 C 228.876 133.200,228.336 133.020,228.200 132.800 C 227.785 132.128,224.800 132.304,224.800 133.000 M217.286 161.678 C 215.743 162.092,215.941 162.800,217.600 162.800 C 218.234 162.800,218.864 162.980,219.000 163.200 C 219.136 163.420,219.867 163.600,220.624 163.600 C 221.381 163.600,222.000 163.780,222.000 164.000 C 222.000 164.220,222.360 164.400,222.800 164.400 C 223.240 164.400,223.600 164.580,223.600 164.800 C 223.600 165.020,223.960 165.200,224.400 165.200 C 224.840 165.200,225.200 165.380,225.200 165.600 C 225.200 165.820,225.434 166.000,225.720 166.000 C 226.456 166.000,228.393 166.941,228.397 167.300 C 228.399 167.465,228.738 167.600,229.151 167.600 C 229.564 167.600,230.129 167.873,230.406 168.207 C 230.683 168.541,231.560 169.122,232.355 169.498 C 233.150 169.873,235.368 171.760,237.285 173.690 C 240.482 176.911,241.600 177.736,241.600 176.875 C 241.600 176.697,241.240 176.164,240.800 175.692 C 240.360 175.220,240.000 174.681,240.000 174.495 C 240.000 173.941,237.334 171.200,236.795 171.200 C 236.521 171.200,235.580 170.553,234.704 169.761 C 233.828 168.970,232.502 168.067,231.756 167.756 C 231.010 167.444,230.399 167.057,230.397 166.895 C 230.392 166.414,228.389 165.629,227.771 165.867 C 227.422 166.000,227.200 165.835,227.200 165.443 C 227.200 165.067,226.868 164.800,226.400 164.800 C 225.960 164.800,225.600 164.620,225.600 164.400 C 225.600 164.180,225.240 164.000,224.800 164.000 C 224.360 164.000,224.000 163.820,224.000 163.600 C 224.000 163.380,223.727 163.200,223.394 163.200 C 222.489 163.200,219.600 162.245,219.600 161.945 C 219.600 161.446,218.589 161.329,217.286 161.678 M242.000 178.800 C 242.000 179.240,242.180 179.600,242.400 179.600 C 242.620 179.600,242.800 179.920,242.800 180.312 C 242.800 180.703,243.160 181.283,243.600 181.600 C 244.040 181.917,244.400 182.497,244.400 182.888 C 244.400 183.280,244.580 183.600,244.800 183.600 C 245.020 183.600,245.200 183.834,245.200 184.120 C 245.200 184.856,246.141 186.793,246.500 186.797 C 246.665 186.799,246.800 187.214,246.800 187.720 C 246.800 188.774,247.653 190.792,248.100 190.797 C 248.265 190.799,248.400 191.779,248.400 192.976 C 248.400 194.173,248.580 195.264,248.800 195.400 C 249.020 195.536,249.200 196.177,249.200 196.824 C 249.200 197.471,249.380 198.000,249.600 198.000 C 249.849 198.000,250.000 200.268,250.000 204.005 C 250.000 207.308,249.820 210.368,249.600 210.805 C 249.380 211.242,249.020 211.958,248.800 212.395 C 248.580 212.832,248.400 214.009,248.400 215.011 C 248.400 216.281,248.157 217.094,247.600 217.692 C 247.160 218.164,246.796 219.012,246.791 219.575 C 246.786 220.139,246.430 221.050,246.000 221.600 C 245.570 222.150,245.214 223.005,245.209 223.500 C 245.204 223.995,245.020 224.400,244.800 224.400 C 244.580 224.400,244.400 224.636,244.400 224.925 C 244.400 225.213,244.040 225.836,243.600 226.308 C 243.160 226.780,242.800 227.354,242.800 227.582 C 242.800 227.811,242.080 228.763,241.200 229.697 C 240.320 230.631,239.600 231.622,239.600 231.898 C 239.600 232.174,239.324 232.400,238.987 232.400 C 238.651 232.400,238.262 232.695,238.123 233.056 C 237.794 233.913,223.513 248.194,222.656 248.523 C 222.295 248.662,222.000 249.051,222.000 249.387 C 222.000 249.733,221.652 250.000,221.200 250.000 C 220.667 250.000,220.400 250.267,220.400 250.800 C 220.400 251.333,220.133 251.600,219.600 251.600 C 219.067 251.600,218.800 251.867,218.800 252.400 C 218.800 252.933,218.533 253.200,218.000 253.200 C 217.467 253.200,217.200 253.467,217.200 254.000 C 217.200 254.533,216.933 254.800,216.400 254.800 C 215.948 254.800,215.600 255.067,215.600 255.413 C 215.600 255.749,215.316 256.134,214.969 256.267 C 214.623 256.400,212.017 258.809,209.180 261.620 C 206.343 264.431,203.432 267.150,202.711 267.662 C 201.990 268.175,199.843 270.144,197.941 272.039 C 196.039 273.933,194.194 275.594,193.841 275.729 C 193.488 275.864,193.200 276.251,193.200 276.587 C 193.200 276.924,192.967 277.200,192.681 277.200 C 191.833 277.200,189.200 280.162,189.200 281.117 L 189.200 282.000 197.976 282.000 C 203.396 282.000,206.847 281.847,207.000 281.600 C 207.136 281.380,208.317 281.200,209.624 281.200 C 210.941 281.200,212.000 281.022,212.000 280.800 C 212.000 280.578,210.933 280.400,209.600 280.400 C 208.280 280.400,207.200 280.535,207.200 280.700 C 207.201 281.355,191.833 280.788,191.313 280.114 C 190.736 279.366,190.999 278.748,191.769 279.043 C 192.086 279.165,193.709 277.902,195.656 276.019 C 197.495 274.240,200.080 271.808,201.400 270.613 C 202.720 269.418,205.731 266.541,208.090 264.220 C 210.450 261.899,212.655 260.000,212.990 260.000 C 213.326 260.000,213.600 259.661,213.600 259.247 C 213.600 258.830,213.957 258.400,214.400 258.284 C 214.874 258.160,215.200 257.738,215.200 257.250 C 215.200 256.701,215.390 256.498,215.769 256.643 C 216.336 256.861,218.098 255.225,223.704 249.272 C 225.192 247.692,226.581 246.400,226.790 246.400 C 227.000 246.400,227.358 246.052,227.586 245.627 C 227.813 245.202,228.359 244.740,228.800 244.600 C 229.240 244.460,229.600 244.088,229.600 243.773 C 229.600 243.458,229.748 243.200,229.928 243.200 C 230.324 243.200,232.800 241.030,232.800 240.683 C 232.800 240.287,234.799 238.400,235.218 238.400 C 235.428 238.400,235.600 238.159,235.600 237.865 C 235.600 237.571,236.966 236.032,238.635 234.445 C 240.420 232.748,241.585 231.337,241.463 231.019 C 241.344 230.710,241.583 230.393,242.023 230.278 C 242.445 230.168,242.959 229.635,243.165 229.093 C 243.370 228.552,243.827 227.999,244.179 227.863 C 244.637 227.688,244.748 227.330,244.566 226.609 C 244.403 225.957,244.480 225.600,244.785 225.600 C 245.613 225.600,246.360 224.533,246.135 223.672 C 245.986 223.102,246.245 222.534,246.958 221.874 C 247.573 221.304,248.000 220.476,248.000 219.854 C 248.000 219.274,248.180 218.800,248.400 218.800 C 248.620 218.800,248.800 218.530,248.800 218.200 C 248.800 217.870,248.980 217.600,249.200 217.600 C 249.420 217.600,249.600 216.610,249.600 215.400 C 249.600 214.190,249.780 213.200,250.000 213.200 C 250.220 213.200,250.400 212.761,250.400 212.224 C 250.400 211.687,250.580 211.136,250.800 211.000 C 251.459 210.593,251.325 198.023,250.659 197.767 C 250.321 197.638,250.192 197.177,250.314 196.537 C 250.431 195.927,250.293 195.381,249.973 195.183 C 249.620 194.965,249.474 194.224,249.549 193.019 C 249.657 191.258,248.931 188.800,248.302 188.800 C 248.136 188.800,248.000 188.291,248.000 187.670 C 248.000 186.980,247.609 186.172,246.996 185.597 C 246.366 185.004,246.076 184.392,246.216 183.949 C 246.366 183.478,246.098 183.021,245.410 182.570 C 244.729 182.124,244.454 181.659,244.600 181.200 C 244.737 180.768,244.380 180.035,243.650 179.253 C 242.282 177.789,242.000 177.711,242.000 178.800 M277.812 184.293 C 277.648 184.948,277.710 185.437,277.970 185.523 C 278.206 185.602,278.400 186.282,278.400 187.033 C 278.400 187.981,278.584 188.400,279.000 188.400 C 279.692 188.400,279.865 185.811,279.200 185.400 C 278.980 185.264,278.800 184.814,278.800 184.400 C 278.800 183.185,278.109 183.110,277.812 184.293 M279.443 192.233 C 279.081 193.175,279.149 194.589,279.576 195.020 C 280.209 195.659,280.305 210.401,279.677 210.400 C 279.310 210.400,279.191 210.898,279.277 212.069 C 279.442 214.307,280.400 214.638,280.400 212.457 C 280.400 211.572,280.580 210.736,280.800 210.600 C 281.044 210.449,281.200 207.329,281.200 202.576 C 281.200 197.659,281.053 194.800,280.800 194.800 C 280.580 194.800,280.400 194.080,280.400 193.200 C 280.400 191.584,279.890 191.068,279.443 192.233 M278.667 216.667 C 278.520 216.813,278.400 217.497,278.400 218.187 C 278.400 218.876,278.200 219.640,277.955 219.885 C 277.645 220.195,277.630 220.673,277.908 221.465 C 278.270 222.495,278.332 222.526,278.583 221.800 C 278.734 221.360,279.025 220.687,279.229 220.305 C 280.043 218.781,279.576 215.758,278.667 216.667 M277.067 223.867 C 276.920 224.013,276.800 224.463,276.800 224.867 C 276.800 225.270,276.620 225.600,276.400 225.600 C 276.180 225.600,276.000 226.129,276.000 226.776 C 276.000 227.423,275.820 228.064,275.600 228.200 C 275.380 228.336,275.200 228.799,275.200 229.229 C 275.200 229.659,275.020 230.368,274.800 230.805 C 274.580 231.242,274.220 231.958,274.000 232.395 C 273.780 232.832,273.600 233.447,273.600 233.761 C 273.600 234.076,273.464 234.393,273.298 234.467 C 273.132 234.540,272.385 235.815,271.638 237.300 C 270.891 238.785,270.127 240.000,269.940 240.000 C 269.753 240.000,269.600 240.360,269.600 240.800 C 269.600 241.240,269.420 241.600,269.200 241.600 C 268.980 241.600,268.800 241.878,268.800 242.217 C 268.800 242.556,268.453 243.206,268.029 243.661 C 267.606 244.116,267.355 244.738,267.472 245.044 C 267.600 245.377,267.427 245.600,267.043 245.600 C 266.689 245.600,266.400 245.800,266.400 246.044 C 266.400 246.289,265.680 247.349,264.800 248.400 C 263.920 249.451,263.200 250.501,263.200 250.733 C 263.200 250.965,262.868 251.390,262.463 251.677 C 262.057 251.965,261.410 252.868,261.024 253.685 C 260.638 254.502,259.980 255.279,259.561 255.412 C 259.143 255.545,258.800 255.917,258.800 256.240 C 258.800 256.562,258.530 256.929,258.200 257.055 C 257.871 257.182,256.582 258.256,255.337 259.443 C 254.093 260.629,252.897 261.600,252.680 261.600 C 252.464 261.600,251.771 262.140,251.140 262.800 C 250.509 263.460,249.797 264.000,249.557 264.000 C 249.113 264.000,246.426 266.785,246.409 267.263 C 246.404 267.407,246.040 267.431,245.600 267.316 C 245.160 267.201,244.800 267.264,244.800 267.456 C 244.800 267.648,244.294 268.029,243.675 268.303 C 243.056 268.576,242.164 269.160,241.692 269.600 C 241.220 270.040,240.646 270.400,240.417 270.400 C 240.188 270.400,240.000 270.580,240.000 270.800 C 240.000 271.020,239.640 271.200,239.200 271.200 C 238.760 271.200,238.400 271.380,238.400 271.600 C 238.400 271.820,238.074 272.000,237.675 272.000 C 237.277 272.000,236.564 272.360,236.092 272.800 C 235.620 273.240,234.866 273.600,234.417 273.600 C 233.968 273.600,233.600 273.780,233.600 274.000 C 233.600 274.220,233.335 274.400,233.012 274.400 C 232.689 274.400,231.783 274.760,231.000 275.200 C 230.217 275.640,229.309 276.000,228.982 276.000 C 228.656 276.000,228.077 276.167,227.695 276.371 C 227.313 276.575,226.685 276.839,226.300 276.958 C 225.090 277.333,225.539 278.000,227.000 278.000 C 227.770 278.000,228.400 277.820,228.400 277.600 C 228.400 277.380,228.839 277.200,229.376 277.200 C 229.913 277.200,230.464 277.020,230.600 276.800 C 230.736 276.580,231.197 276.400,231.624 276.400 C 232.051 276.400,232.400 276.220,232.400 276.000 C 232.400 275.780,232.634 275.600,232.920 275.600 C 233.656 275.600,235.593 274.659,235.597 274.300 C 235.599 274.135,235.834 274.000,236.120 274.000 C 236.856 274.000,238.793 273.059,238.797 272.700 C 238.799 272.535,239.120 272.400,239.512 272.400 C 239.903 272.400,240.483 272.040,240.800 271.600 C 241.117 271.160,241.697 270.800,242.088 270.800 C 242.480 270.800,242.800 270.650,242.800 270.468 C 242.800 270.285,243.295 269.880,243.900 269.568 C 244.505 269.255,245.349 268.685,245.775 268.300 C 246.202 267.915,246.747 267.600,246.987 267.600 C 247.227 267.600,247.683 267.240,248.000 266.800 C 248.317 266.360,248.785 266.000,249.040 266.000 C 249.295 266.000,250.447 265.100,251.600 264.000 C 252.753 262.900,253.830 262.000,253.992 262.000 C 254.406 262.000,262.000 254.363,262.000 253.947 C 262.000 253.760,262.506 253.110,263.124 252.503 C 263.742 251.897,264.678 250.770,265.205 250.000 C 265.731 249.230,266.270 248.510,266.402 248.400 C 266.534 248.290,266.956 247.525,267.340 246.700 C 267.723 245.875,268.299 245.200,268.619 245.200 C 268.938 245.200,269.200 244.840,269.200 244.400 C 269.200 243.960,269.359 243.600,269.553 243.600 C 269.748 243.600,270.007 243.285,270.129 242.900 C 270.425 241.964,271.724 239.834,272.100 239.667 C 272.265 239.593,272.400 239.188,272.400 238.767 C 272.400 238.345,272.580 238.000,272.800 238.000 C 273.020 238.000,273.200 237.640,273.200 237.200 C 273.200 236.760,273.380 236.400,273.600 236.400 C 273.820 236.400,274.000 236.040,274.000 235.600 C 274.000 235.160,274.180 234.800,274.400 234.800 C 274.620 234.800,274.800 234.451,274.800 234.024 C 274.800 233.597,274.980 233.136,275.200 233.000 C 275.420 232.864,275.600 232.313,275.600 231.776 C 275.600 231.239,275.780 230.800,276.000 230.800 C 276.220 230.800,276.400 230.361,276.400 229.824 C 276.400 229.287,276.580 228.736,276.800 228.600 C 277.020 228.464,277.200 227.823,277.200 227.176 C 277.200 226.529,277.380 226.000,277.600 226.000 C 277.820 226.000,278.000 225.460,278.000 224.800 C 278.000 223.653,277.640 223.293,277.067 223.867 M223.200 277.975 C 223.200 278.181,222.629 278.406,221.931 278.475 C 219.968 278.669,219.997 279.600,221.967 279.600 C 222.865 279.600,223.600 279.441,223.600 279.247 C 223.600 279.052,224.005 278.772,224.500 278.623 C 225.374 278.361,225.377 278.343,224.600 278.005 C 223.524 277.536,223.200 277.529,223.200 277.975 M216.214 279.577 C 216.070 279.810,215.355 280.000,214.625 280.000 C 213.895 280.000,213.074 280.270,212.800 280.600 C 212.369 281.120,212.572 281.200,214.327 281.200 C 215.441 281.200,216.464 281.020,216.600 280.800 C 216.736 280.580,217.302 280.400,217.857 280.400 C 218.486 280.400,218.805 280.211,218.702 279.900 C 218.494 279.265,216.562 279.015,216.214 279.577 " stroke="none" fill="#b87d44" fill-rule="evenodd"></path><path id="path4" d="M254.400 148.600 C 254.400 148.930,254.580 149.200,254.800 149.200 C 255.020 149.200,255.200 148.930,255.200 148.600 C 255.200 148.270,255.020 148.000,254.800 148.000 C 254.580 148.000,254.400 148.270,254.400 148.600 M249.600 194.200 C 249.600 194.530,249.780 194.800,250.000 194.800 C 250.220 194.800,250.400 194.530,250.400 194.200 C 250.400 193.870,250.220 193.600,250.000 193.600 C 249.780 193.600,249.600 193.870,249.600 194.200 M279.241 197.220 L 279.282 199.000 279.614 197.600 C 279.809 196.781,279.792 196.042,279.573 195.820 C 279.341 195.584,279.215 196.114,279.241 197.220 M279.240 208.300 C 279.218 209.235,279.380 210.000,279.600 210.000 C 280.061 210.000,280.061 209.039,279.600 207.600 C 279.328 206.750,279.274 206.856,279.240 208.300 M249.892 213.842 C 249.731 214.002,249.600 214.409,249.600 214.747 C 249.600 215.197,249.718 215.242,250.045 214.915 C 250.290 214.670,250.421 214.263,250.337 214.010 C 250.252 213.757,250.052 213.681,249.892 213.842 M156.000 254.807 C 156.000 255.032,157.372 255.200,159.200 255.200 C 160.960 255.200,162.400 255.050,162.400 254.866 C 162.400 254.682,160.960 254.505,159.200 254.473 C 157.332 254.439,156.000 254.578,156.000 254.807 " stroke="none" fill="#e89d4a" fill-rule="evenodd"></path></g></svg>